<?xml version="1.0" encoding="UTF-8" standalone="no"?>
<!-- Created with Inkscape (http://www.inkscape.org/) -->

<svg
   xmlns:dc="http://purl.org/dc/elements/1.1/"
   xmlns:cc="http://creativecommons.org/ns#"
   xmlns:rdf="http://www.w3.org/1999/02/22-rdf-syntax-ns#"
   xmlns:svg="http://www.w3.org/2000/svg"
   xmlns="http://www.w3.org/2000/svg"
   xmlns:sodipodi="http://sodipodi.sourceforge.net/DTD/sodipodi-0.dtd"
   xmlns:inkscape="http://www.inkscape.org/namespaces/inkscape"
   id="svg4206"
   version="1.1"
   inkscape:version="0.91 r13725"
   width="625"
   height="783.75"
   viewBox="0 0 625 783.75"
   sodipodi:docname="logo.svg">
  <metadata
     id="metadata4212">
    <rdf:RDF>
      <cc:Work
         rdf:about="">
        <dc:format>image/svg+xml</dc:format>
        <dc:type
           rdf:resource="http://purl.org/dc/dcmitype/StillImage" />
        <dc:title></dc:title>
      </cc:Work>
    </rdf:RDF>
  </metadata>
  <defs
     id="defs4210" />
  <sodipodi:namedview
     pagecolor="#ffffff"
     bordercolor="#666666"
     borderopacity="1"
     objecttolerance="10"
     gridtolerance="10"
     guidetolerance="10"
     inkscape:pageopacity="0"
     inkscape:pageshadow="2"
     inkscape:window-width="1920"
     inkscape:window-height="1080"
     id="namedview4208"
     showgrid="false"
     inkscape:zoom="0.29665072"
     inkscape:cx="519.19781"
     inkscape:cy="-348.62841"
     inkscape:window-x="0"
     inkscape:window-y="0"
     inkscape:window-maximized="0"
     inkscape:current-layer="svg4206" />
  <g
     style="clip-rule:evenodd;fill-rule:evenodd;stroke-linejoin:round;stroke-miterlimit:1.41420996"
     id="g4284"
     transform="matrix(0.20828275,0,0,0.20828275,0.0077689,0.41295418)">
    <path
       style="fill:#33343e"
       d="m 2447.62,2338.15 c -50.33,69.99 -110.45,46.62 -94.77,-33.17 15.76,-85.28 79.92,-141.76 157.25,-172.35 -14.16,93.31 -32.86,164.55 -62.48,205.52 z M 1203.6,2163.63 c -11.83,-38.37 42.75,-64.35 111.86,-58.42 -19.45,64.47 -104.61,86.36 -111.86,58.42 z m 1025,-295.09 c -12.75,87.67 -39.37,124.89 -58.91,121.6 -21.64,-3.73 -25.69,-70.35 -18.62,-123.17 6.93,-48.01 26.33,-100.84 59,-102.45 6.16,-0.01 10.97,0.14 16.08,2.99 -0.18,34.93 0.23,69.1 2.45,101.03 z m 311.14,-93.8 -4.86,84.74 c -14.12,69.35 -36.84,98.59 -53.6,95.68 -22.31,-3.65 -27.05,-70.2 -18.62,-123.17 6.93,-48.01 25.65,-100.76 59,-102.45 8.19,-0.24 16.68,2.23 23.37,6.96 -2.16,11.19 -4.18,23.74 -5.29,38.24 z m -881.48,164.67 c 3.54,-59.95 -40.75,-100.83 -93.74,-121.58 32.42,-34.44 53.77,-82.02 54.09,-127.91 0.2,-89.69 -95.63,-138.49 -204.83,-123.49 -177.85,25.45 -305.1,160.2 -311.54,310.14 -4.38,107.28 58.47,148.82 128.24,142.35 76.46,-7.9 48.27,-94.4 48.27,-94.4 -40.54,23.03 -116.96,0.81 -119.75,-72.8 -4.55,-107.64 90.42,-218.92 231.02,-234.71 74.36,-8.34 140.81,34.85 139.83,99.3 -0.11,35.61 -11.94,64.31 -30.7,86.27 -14.57,-1.79 -28.17,-0.95 -41.01,0.5 -56.63,7.72 -66.19,50.55 -25.32,61.02 28.18,7.1 56.42,2.57 82.39,-9.93 29.32,17.24 49.64,51.92 44.15,112.77 -9.42,105.1 -94.88,124.28 -164.67,118.43 11.08,-35.47 15.46,-75.67 11.28,-119 -23.7,-235.54 15.23,-278.93 15.23,-278.93 -3.03,-27.04 -60.01,-58.98 -96.52,-0.12 -33.52,55.1 18.57,147.14 -4.89,389.34 -101.56,-2.29 -193.23,47.02 -180.84,108.6 14.5,68.19 131.45,55.06 206.11,-17.66 15.38,-15.42 27.83,-32.56 37.19,-52.77 123.44,14.2 265.66,-29.83 276.01,-175.42 z m 205.35,226.1 c 53.86,4.22 74.63,-30.28 64.53,-59.26 0,0 -17.93,17.07 -46.49,6.58 -37.28,-14.98 -45.84,-146.12 -14.58,-270.1 15.18,-59.89 10.81,-68.3 -92.38,-48.5 -63.01,11.87 -84.67,-16.5 -84.67,-16.5 0,0 -7.96,8.42 -9,11.28 -18.9,26.76 -7.6,60.4 20.89,76.37 -2.05,48.83 -12.27,110.21 -30.1,152.59 0,0 0.76,0.61 0.83,1.28 5.42,11.71 19.92,12.82 28.46,-8.67 17.53,-45.09 30.09,-91.68 36.2,-134.8 8.94,0.36 19.16,-0.1 30.5,-2.74 l 6.01,-1.36 c -41.63,184.01 -1.18,288.3 89.8,293.83 z m 182.64,-409.29 c 15.51,-32.55 12.11,-56.81 -31.18,-70.43 -35.39,-10.4 -70.68,4.51 -75.06,44.71 -2.22,29 9.9,57.75 44.09,63.5 22.99,3.58 50.01,-11.78 62.15,-37.78 z M 989.64,1690.57 c -48.82,71.19 -111.12,46.7 -95.437,-33.09 17.325,-89.56 86.894,-146.65 168.437,-176.34 -11.92,82.79 -34,154.4 -73,209.43 z m 1263.54,-261.5 c -9.54,61.31 -16.82,130.57 -21.85,201.64 l -10.29,5.95 c -106.14,60.51 -140.6,-51.3 -107.8,-143.28 51.44,-145.41 157.69,-180.61 139.94,-64.31 z m 138.91,531.4 c 16.2,33.75 42.48,52.16 73.1,46.47 32.22,-5.67 52.02,-30.49 63.86,-59.19 -2.51,38.61 -5.93,75.27 -9.57,109.9 -99.55,46.09 -180.66,128.44 -198.95,227.69 -31.58,169.87 119.94,172.03 199.58,58.36 34.27,-48.34 58.52,-131.15 74.92,-234.98 46.34,-7.94 93.52,-8.44 133.94,-2.03 72.57,12.39 92.75,51.88 92.75,51.88 34.67,-32.64 33.52,-116.02 -56.87,-134.62 -51.24,-11.36 -106.37,-8.6 -159.77,3.56 6.17,-60.93 9.62,-127.71 11.42,-197.05 1.83,-105.61 27.04,-137.19 27.04,-137.19 -31.58,-25.21 -69.66,-22.98 -89.67,18.28 -9.1,-7.88 -20,-13.5 -31.87,-15.59 -76.86,-13.96 -139.58,55.37 -146.75,156.11 -1.95,26.56 -0.19,51.08 4.7,72.45 -12.86,36.13 -31.19,62.96 -48.54,61.16 -20.73,-1.78 -25.75,-58.72 -24.47,-120.46 1.16,-38.46 4.96,-132.67 11.98,-228.6 58.19,-24.33 117.76,-24.17 172.91,-14.62 71.97,13.14 92,51.28 92,51.28 34.66,-32.64 34.87,-116.18 -56.19,-134.7 -74.99,-15.54 -146.17,8.88 -205.11,38.77 3.41,-42.82 7.57,-85.04 11.96,-119.08 31.93,-258.21 -223.01,-120.76 -294.83,68.7 -51.52,138.57 46.17,240.55 188.58,161.59 l -2.28,46.8 c -4.36,-2.25 -8.64,-3.83 -14.2,-4.57 -77.54,-13.88 -140.25,55.45 -147.43,156.19 -1.5,20.51 -0.79,39.81 1.93,57.32 -12.69,44.87 -33.38,85.35 -53.88,83.35 -18.03,-2.08 -31.35,-29.33 -24.52,-96.49 6.61,-69.19 28.35,-101.07 28.35,-101.07 -56.82,-30.58 -103.74,-3.41 -113.25,82.53 -11.01,97.07 20.08,154.5 72.59,158.87 45.15,3.43 80.58,-33.8 101.88,-84.84 15.7,39.22 43.94,61.33 77.52,55.12 50.32,-9.08 69.86,-66.71 78.68,-110.14 6.14,54.75 24.06,92.44 60.28,97.96 42.5,5.82 76.5,-23.89 98.18,-69.12 z M 1325.98,1150.4 c 16.94,-105.26 0.81,-151.365 -85.16,-112.28 0,0 14.61,26.42 -0.22,132.13 -13.34,94.59 8,162.7 64.86,163.16 43.87,0.55 71.68,-50.49 85.9,-94.52 6.59,113.57 31.07,166.95 66.62,191.02 41.43,27.52 116.23,17.07 159.63,-65.84 10.79,-19.69 1.32,-30.95 -11.98,-27.4 -0.6,0.75 -1.27,0.83 -1.27,0.83 -28.93,59.37 -77.67,70.32 -103.61,46.54 -29.85,-28.14 -35.61,-134.27 -28.44,-235.01 5.25,-75.2 27.79,-136.6 27.79,-136.6 -43.01,-35.554 -104.81,-19.032 -109.28,81.4 -0.87,28.85 -1.29,55.59 -2.01,79.63 -13.51,74.76 -36.68,112.27 -54.11,109.43 -20.21,-3.2 -21.99,-49.55 -8.72,-132.49 z m -411.978,-79.01 c 4.807,0.14 8.939,0.36 13.823,1.18 -11.236,27.96 17.942,56.17 51.071,58.61 6.236,0.67 11.719,0.74 18.555,0.66 6.179,18.47 9.889,39.27 8.859,60.61 -4.05,73.69 -45.826,128.35 -90.068,130.58 -41.538,1.92 -65.025,-42.67 -61.502,-114.94 3.144,-75.64 25.987,-134.34 59.262,-136.7 z m 646.868,-96.582 c -39.47,32.492 -18.93,130.122 -17.85,286.072 -0.12,23.28 -6.94,35.68 -6.94,35.68 66.05,21.34 87.2,-9.79 88.7,-142.75 33.3,-111.88 58.64,-154.429 76.07,-151.59 16.9,4.26 4.79,54.9 -24.61,91.74 0,0 82.52,33.86 98.23,-21.29 26.56,-92.653 4.44,-118.919 -31.39,-121.056 -38.54,-1.834 -81.03,22.102 -116.75,118.516 4.5,-75.796 17.4,-88.882 17.4,-88.882 0,0 -40.98,-41.943 -82.86,-6.44 z m 339.29,199.422 c 155.56,-71.53 175.67,-221.642 48.03,-230.585 -89.62,-5.682 -152.63,67.105 -160.11,165.145 -6.8,97.96 56.59,156.55 109.26,162.27 90,9.07 169.93,-53.3 189.75,-126.71 5.68,-22.54 -5.44,-30.19 -17.83,-24.69 -0.68,0.07 -0.6,0.75 -0.6,0.75 -13.98,58.38 -76.42,111.94 -134.49,106.82 -54.61,-4.82 -67.25,-80.75 -58.67,-138.53 6.93,-48 27.65,-119.464 56.28,-114.464 27.87,4.4 38.24,133.294 -33.15,174.164 -24.4,14.37 1.53,25.83 1.53,25.83 z M 767.103,823.667 c 22.328,15.974 -6.591,148.59 -73.874,299.203 13.654,-146.646 47.111,-318.102 73.874,-299.203 z m 322.377,264.903 c -19.47,5.14 -38.87,6.64 -57.74,7.25 -20.5,-54.52 -60.847,-66.41 -87.789,-44.22 -7.815,-2.55 -16.755,-2.91 -27.046,-3.13 -83.827,3.25 -147.36,83.63 -148.972,185.11 -0.525,25.87 3.189,48.79 10.362,68.52 -12.243,33.4 -28.981,58.02 -44.537,53.74 -29.605,-7.63 -45.836,-79.05 -44.872,-155.82 C 804.609,974.835 842.231,767.318 778.138,751.241 685.943,728.736 610.841,1004.8 610.072,1186.96 c 0.095,38.03 3.101,72.59 9.422,102.34 -18.178,63.44 -84.23,121.91 -141.565,116.48 -67.763,-6.09 -121.891,-110.21 -101.995,-250.03 0.373,-2.78 0.745,-5.56 1.717,-9.09 59.555,-12.16 117.067,-36.41 162.694,-75.08 92.606,-77.473 88.934,-201.638 17.26,-212.072 C 474.288,849.011 345.552,927.806 298.644,1095.3 222.149,1092.61 145.214,1075.43 86.8791,1050.54 277.439,449.582 839.743,14.1406 1503.75,14.1406 2324.58,14.1406 2990,679.558 2990,1500.39 c 0,112.91 -12.59,222.87 -36.52,328.58 l -3.04,0.96 c -0.67,0.08 -0.6,0.76 -0.6,0.76 -13.98,58.38 -76.41,111.93 -134.48,106.82 -54.62,-4.82 -67.25,-80.75 -58.68,-138.53 6.93,-48.01 27.66,-119.47 56.28,-114.47 27.88,4.4 38.24,133.29 -33.15,174.16 -24.4,14.38 1.53,25.84 1.53,25.84 155.56,-71.54 175.67,-221.64 48.04,-230.59 -89.62,-5.68 -152.64,67.11 -160.11,165.14 -6.8,97.96 56.59,156.56 109.25,162.28 59.23,5.96 114.09,-19 150.27,-57.85 -182.09,614.72 -751.2,1063.15 -1425.04,1063.15 -820.833,0 -1486.25,-665.42 -1486.25,-1486.25 0,-127.66 16.0958,-251.57 46.4037,-369.85 53.8673,18.26 135.4253,31.88 221.2923,27.87 l -2.083,18.03 c -17.82,182.71 74.142,264.1 157.983,273.17 82.655,8.54 159.186,-47.29 190.426,-118.65 13.741,35.53 34.584,59.79 63.376,68.94 36.943,11.29 74.244,-22.19 97.311,-69.25 23.091,36.65 60.808,56.04 102.321,55.05 92.318,-0.78 145.9,-114.94 148.21,-198.03 1.55,-22.76 -0.58,-41.69 -2.48,-58.59 13.1,-2.24 26.21,-5.25 38.7,-8.85 -2.02,10.58 -3.04,22.45 -2.87,35.63 2.2,86.69 1.77,168.19 -3.55,242.71 -100.391,38.65 -188.114,116.95 -210.66,239.27 -31.504,170.55 113.561,182.33 194.79,70.53 39.82,-53.75 66.17,-136.11 85.12,-247.75 45.66,-7.87 90.13,-8.07 128.52,-1.43 72.58,12.39 92.68,51.2 92.68,51.2 35.42,-32.04 35.03,-114.82 -56.19,-134.7 -46.28,-9.86 -99.01,-10.1 -152.71,-0.65 6.62,-56.87 12.4,-121.18 17.51,-191.57 6.34,-102.01 24.57,-122.54 25.77,-124.05 -37.22,-21.66 -85.02,-15.43 -107.89,29.15 z M 542.314,887.92 c 54.471,9.627 54.273,99.318 -14.323,152.88 -37.302,27.46 -86.034,44.57 -140.112,50.64 33.72,-138.631 99.288,-213.073 154.435,-203.52 z m 672.556,101.776 c 14.83,-32.468 11.43,-56.727 -31.78,-69.673 -34.79,-11.152 -70.08,3.761 -73.79,43.878 -3.57,29.15 9.9,57.759 42.74,63.649 23.66,3.51 50.69,-11.85 62.83,-37.854 z"
       id="Logo"
       inkscape:connector-curvature="0" />
  </g>
  <path
     style="opacity:1;fill:#000000"
     d="m 198.42211,772.2745 c -4.64907,0.5017 -6.88784,0.076 -10.0449,-1.9102 -3.29543,-2.0731 -4.0625,-3.3642 -4.0625,-6.8379 0,-3.2333 0.92811,-5.0632 3.78881,-7.4704 2.08385,-1.7534 5.88072,-3.769 8.4375,-4.4791 2.55677,-0.7101 7.26046,-1.2942 10.45262,-1.298 l 5.80394,-0.01 1.42629,-7.8125 c 0.78445,-4.2969 1.7173,-14.8438 2.07299,-23.4375 0.35568,-8.5938 0.93592,-17.5143 1.2894,-19.8233 0.35347,-2.3091 2.09411,-5.5435 3.86808,-7.1875 1.77399,-1.6441 4.46235,-2.9892 5.97417,-2.9892 1.5118,0 3.78397,1.1439 5.04927,2.542 2.18664,2.4162 2.1976,2.8339 0.22139,8.4375 -1.14353,3.2425 -2.45606,8.4267 -2.91674,11.5205 -0.47023,3.15793 -0.42111,5.78171 -0.42111,5.78171 0,0 1.01236,-1.4217 2.05437,-2.34421 1.47979,-1.3101 4.48454,-2.1875 7.4912,-2.1875 3.3982,0 5.73655,-0.7914 7.23692,-2.4493 1.2191,-1.3471 2.49393,-4.9102 2.83295,-7.9179 0.4046,-3.5896 -0.0567,-6.7703 -1.34278,-9.2571 -1.07752,-2.0838 -4.041,-4.7765 -6.58549,-5.984 -3.53801,-1.6789 -6.71211,-2.0591 -13.49256,-1.6161 -5.76909,0.3768 -10.83115,1.5685 -14.49122,3.4115 -3.09375,1.5578 -7.50242,4.5998 -9.79704,6.7601 -2.29461,2.1603 -5.3417,6.1778 -6.7713,8.9278 -1.5056,2.8962 -2.64289,7.5431 -2.70296,11.0441 -0.0883,5.1399 0.42097,6.4957 3.4035,9.0625 2.46753,2.1236 5.01723,3.0184 8.60106,3.0184 l 5.09384,0 -0.75053,4.6875 c -0.4128,2.5781 -1.95496,5.6718 -3.42704,6.875 -1.47207,1.2031 -4.44231,2.1854 -6.60051,2.1828 -2.15821,0 -5.72159,-1.1007 -7.91861,-2.4403 -2.19701,-1.3396 -4.91954,-3.8474 -6.05005,-5.5727 -1.13051,-1.7254 -2.34936,-5.3281 -2.70855,-8.0061 -0.37716,-2.812 0.23147,-7.9117 1.44067,-12.0712 1.15155,-3.9612 3.40663,-9.2447 5.01127,-11.7411 1.60465,-2.4964 5.36637,-6.83 8.35938,-9.6302 2.99303,-2.8002 6.84812,-5.9477 8.56687,-6.9944 1.71875,-1.0468 6.5,-3.1978 10.625,-4.78 5.53833,-2.1244 10.27902,-2.9105 18.125,-3.0056 9.68455,-0.1173 11.22486,0.2115 17.40208,3.7154 4.21104,2.3885 7.64243,5.4576 9.0625,8.1055 1.25698,2.3437 2.28542,5.9878 2.28542,8.0979 0,2.1101 -1.43353,6.7133 -3.1856,10.2293 -1.75209,3.5159 -3.924,7.0054 -4.82648,7.7544 -1.30037,1.0792 -0.5096,2.4931 3.8106,6.8133 4.88259,4.8826 5.45148,6.0621 5.45148,11.3031 0,3.2183 -0.90797,7.6517 -2.0177,9.8519 -1.10974,2.2003 -3.50037,5.5975 -5.3125,7.5496 -1.81214,1.952 -4.72494,4.2967 -6.47289,5.2104 -1.74796,0.9138 -6.55645,2.274 -10.68555,3.0227 -4.69324,0.8511 -9.67233,0.9569 -13.2827,0.2825 -5.37563,-1.0043 -5.9426,-0.8526 -8.1938,2.1923 -1.3302,1.7992 -5.29326,4.8359 -8.8068,6.7482 -3.51354,1.9123 -9.08034,3.7674 -12.37066,4.1224 z m 0.29107,-8.2526 c 1.5025,0 4.59976,-1.2656 6.8828,-2.8125 2.28305,-1.5469 4.38186,-3.5156 4.66403,-4.375 0.3603,-1.0974 -1.19252,-1.5625 -5.21614,-1.5625 -4.0625,0 -6.45644,0.7273 -8.22916,2.5 -1.375,1.375 -2.5,2.9687 -2.5,3.5416 0,0.573 0.375,1.4167 0.83333,1.875 0.45833,0.4584 2.06265,0.8334 3.56514,0.8334 z m 31.72214,-10.002 c 3.16491,-10e-4 7.704,-0.9854 10.08686,-2.1875 2.38286,-1.202 5.45898,-4.1356 6.83579,-6.5189 1.69097,-2.9272 2.51604,-6.6639 2.54252,-11.515 0.0282,-5.1764 -0.56393,-7.7856 -2.12093,-9.3446 -1.57209,-1.5742 -3.82199,-2.0748 -8.26472,-1.839 -4.1479,0.2201 -6.71322,-0.2847 -8.00353,-1.575 -1.04444,-1.0444 -1.72578,-4.08341 -2.15137,-3.65781 -0.4256,0.4256 -1.29523,7.87141 -1.29523,13.45071 0,5.5793 -0.76135,13.0793 -1.69189,16.6667 l -1.6919,6.5224 5.7544,0 z m 196.59599,16.214 c -1.8379,-0.021 -4.2838,-0.5878 -5.4354,-1.2597 -1.1515,-0.6719 -2.7637,-3.2515 -3.5825,-5.7325 -0.9067,-2.7474 -1.1765,-7.264 -0.6901,-11.5529 0.4393,-3.8731 1.6229,-10.1357 2.6302,-13.9169 1.0073,-3.7813 1.8382,-8.9844 1.8463,-11.5625 0.01,-2.5781 -0.4418,-4.6875 -1.0001,-4.6875 -0.5582,0 -2.1713,1.5641 -3.5847,3.4758 -1.4134,1.9118 -3.7382,5.7662 -5.1663,8.5655 -1.4282,2.7993 -3.2653,8.9298 -4.0827,13.6234 -1.0056,5.7746 -2.3977,9.4453 -4.3059,11.3535 -1.8005,1.8005 -3.735,2.5805 -5.3518,2.1577 -1.3925,-0.3642 -2.8835,-2.0631 -3.3133,-3.7753 -0.4297,-1.7123 -0.4123,-4.331 0.039,-5.8194 0.4717,-1.5568 -0.8175,-0.4774 -3.0352,2.5413 -2.1204,2.8861 -4.961,5.8393 -6.3123,6.5625 -1.3514,0.7232 -3.8543,1.315 -5.562,1.315 -1.7077,0 -4.0155,-0.3494 -5.1284,-0.7765 -1.1129,-0.4271 -2.8707,-2.4148 -3.9062,-4.4172 l -1.8827,-3.6408 -3.7926,3.7927 c -2.086,2.0859 -5.2363,4.1549 -7.0007,4.5978 -1.9955,0.5008 -4.4392,0.061 -6.4659,-1.1636 -1.7919,-1.0828 -4.4591,-4.3414 -5.9273,-7.2413 -2.2841,-4.5117 -2.784,-4.9112 -3.464,-2.7686 -0.4371,1.3771 -2.8453,4.5544 -5.3515,7.0607 -3.6336,3.6336 -5.5132,4.5568 -9.27758,4.5568 -3.4613,0 -5.2399,-0.7412 -6.6667,-2.7782 -1.0702,-1.5279 -1.937,-5.0435 -1.9263,-7.8125 0.011,-2.7689 0.8344,-8.4093 1.8305,-12.5343 0.996,-4.125 1.831,-7.9219 1.8554,-8.4375 0.024,-0.5156 -0.7289,-0.9375 -1.6742,-0.9375 -0.9453,0 -2.0665,1.7389 -2.4916,3.8642 -0.425,2.1253 -2.2219,6.766 -3.9929,10.3125 -1.771,3.5466 -5.0092,8.3226 -7.1959,10.6134 -2.1867,2.2908 -5.08759,4.7694 -6.44642,5.508 -1.35883,0.7386 -4.33966,1.7644 -6.62406,2.2796 -2.2844,0.5152 -6.07704,0.4056 -8.42809,-0.2435 -2.35105,-0.6492 -6.05607,-2.6793 -8.23341,-4.5114 -2.17734,-1.8321 -4.72605,-5.1674 -5.66381,-7.4118 -0.9378,-2.2444 -1.70506,-6.2486 -1.70506,-8.8982 0,-2.6496 0.88525,-7.4155 1.96722,-10.591 1.23628,-3.6282 3.98129,-7.6299 7.38779,-10.7699 3.27004,-3.0142 7.21832,-5.3338 9.95199,-5.8466 2.49227,-0.4676 6.31261,-0.4939 8.48961,-0.059 2.17701,0.4354 5.25086,2.006 6.83084,3.4903 1.705,1.6018 2.8725,4.1594 2.8725,6.2928 0,1.9768 -0.815,5.1703 -1.8111,7.0966 -0.9961,1.9263 -3.80992,5.2573 -6.25285,7.4022 -2.44295,2.1449 -6.6861,5.1816 -9.42924,6.7481 -2.74313,1.5665 -4.99184,3.1942 -4.99714,3.6171 -0.005,0.4229 1.1562,2.251 2.5811,4.0625 1.71635,2.182 3.79336,3.2935 6.15409,3.2935 2.02276,0 5.24984,-1.419 7.46409,-3.2822 2.1454,-1.8052 5.05025,-5.5354 6.45515,-8.2894 1.405,-2.7539 3.3317,-7.5896 4.2816,-10.746 1.4933,-4.9619 1.4785,-6.1184 -0.1092,-8.5417 -1.0101,-1.5415 -1.8364,-4.4162 -1.8364,-6.3883 0,-1.9721 0.3525,-3.9383 0.7834,-4.3692 0.431,-0.4309 2.3718,0.038 4.313,1.0417 2.2402,1.1585 7.2192,1.8251 13.6307,1.8251 7.86958,0 10.26178,0.4184 10.82788,1.8935 0.3996,1.0414 -1.6265,8.9697 -4.5026,17.6183 -2.876,8.6487 -4.89338,16.5997 -4.4832,17.6688 0.6299,1.6415 1.2266,1.4924 3.8352,-0.9582 1.699,-1.5962 3.7661,-4.7742 4.5935,-7.0622 0.8273,-2.2881 1.8729,-4.1602 2.3234,-4.1602 0.4506,0 1.192,-4.4698 1.6476,-9.9329 0.4556,-5.4632 2.1576,-15.1663 3.7823,-21.5625 1.6247,-6.3963 4.7338,-15.8483 6.9092,-21.0046 2.1754,-5.1562 5.9192,-12.0686 8.3196,-15.3608 2.4004,-3.2922 5.7079,-6.5979 7.35,-7.3461 1.6421,-0.7482 4.4087,-1.0032 6.148,-0.5666 2.3907,0.6 3.3636,1.866 3.9868,5.1879 0.5008,2.6693 -3e-4,7.6948 -1.2766,12.8024 -1.1555,4.6246 -4.6215,13.752 -7.7023,20.2832 -3.0807,6.5313 -7.8998,15.6883 -10.709,20.3489 -4.9551,8.2207 -5.0891,8.7335 -4.4855,17.1692 0.3422,4.7825 1.3292,9.5474 2.1934,10.5887 0.8642,1.0413 2.268,1.8932 3.1195,1.8932 0.8515,0 4.82468,-2.68855 6.28008,-5.61045 1.4554,-2.9218 1.17102,-9.00235 1.91712,-13.87635 0.7462,-4.874 2.4448,-10.6511 3.7747,-12.838 1.3299,-2.1869 3.8482,-4.6278 5.5962,-5.4242 2.2212,-1.0121 4.1982,-1.0713 6.5654,-0.1969 1.8629,0.6883 3.2659,1.7732 3.1176,2.4111 -0.1482,0.6379 -1.6951,5.2919 -3.4375,10.3421 -2.093,6.0666 -3.168,11.8735 -3.168,17.1137 0,4.3624 0.5872,8.2944 1.3048,8.7379 0.7176,0.4435 2.0464,0.1909 2.9528,-0.5613 0.9064,-0.7523 3.1329,-4.2298 4.9477,-7.7277 1.12586,-2.17001 1.54885,-2.63775 3.26542,-4.58196 1.53242,-1.73564 1.37637,-0.34871 1.37637,-0.34871 0,0 0.014,-8.94477 0.1374,-10.44622 0.40409,-4.9183 0.54871,-10.70581 1.23181,-12.95221 0.7755,-2.55 2.6597,-4.8173 5.0162,-6.0359 3.1039,-1.6051 4.4223,-1.6834 7.4227,-0.4405 2.0067,0.8311 3.9138,1.9406 4.2382,2.4653 0.3243,0.5248 -0.2393,3.3036 -1.2524,6.1752 l -1.1717,7.08321 5.914,-8.82511 c 4.28224,-6.39013 7.3629,-6.9629 10.5297,-6.9629 2.6599,0 4.5792,0.9051 5.8912,2.7781 1.0702,1.528 1.9458,4.7435 1.9458,7.1455 0,2.402 -1.5172,11.7071 -3.3715,20.6779 -2.0214,9.7788 -2.9858,17.3043 -2.4084,18.792 0.9197,2.3695 1.0941,2.3301 3.8644,-0.8721 1.5957,-1.8445 3.1717,-4.0945 3.5022,-5 0.4671,-1.28 0.954,-1.3142 2.1876,-0.1535 1.2822,1.2065 1.281,2.2308 -0.01,5.3378 -0.876,2.1147 -3.2503,5.2398 -5.2764,6.9446 -2.0261,1.7048 -5.1875,3.0826 -7.0254,3.0617 z M 287.42866,739.0323 c 1.71266,-1.609 4.24391,-5.2596 5.625,-8.1126 1.38107,-2.8529 2.51105,-6.6638 2.51105,-8.4687 0,-1.8049 -0.48733,-3.5828 -1.08294,-3.9509 -0.59563,-0.3681 -2.01613,0.3619 -3.15666,1.6222 -1.14055,1.2603 -3.18448,5.4517 -4.54207,9.3143 -1.35758,3.8625 -2.46833,8.2599 -2.46833,9.7719 l 0,2.7492 z m 78.16106,-33.86464 c 3.0988,-6.3927 5.86659,-15.69716 6.87899,-19.58396 1.1159,-4.2843 1.3895,-7.5183 0.6946,-8.2131 -0.6948,-0.6949 -2.1622,0.8456 -3.7266,3.9121 -1.4193,2.7821 -3.9287,9.7396 -5.5765,15.4612 -1.6477,5.7217 -4.52622,16.84101 -4.94002,19.24731 -0.525,3.0529 2.73803,-2.71295 6.66953,-10.82355 z m 22.22539,8.30184 c -2.6027,0.6107 -4.1038,0.063 -6.5625,-2.3961 -1.7534,-1.7533 -3.1879,-4.0942 -3.1879,-5.2019 0,-1.1077 0.6467,-3.2426 1.4371,-4.7443 0.7904,-1.5017 2.056,-3.1436 2.8125,-3.6487 0.7565,-0.5051 3.0974,-0.927 5.2022,-0.9375 2.1455,-0.011 5.0287,1.1007 6.5625,2.5296 1.5046,1.4018 2.7357,3.6204 2.7357,4.9303 0,1.3099 -1.2657,3.798 -2.8125,5.5292 -1.5469,1.7312 -4.3311,3.504 -6.1871,3.9394 z"
     id="path4238"
     inkscape:connector-curvature="0"
     sodipodi:nodetypes="ccscsccssccsssscsssscccssscsscsccscssssccsccscssscccccssccsscssscscccccccssscccccscscsccsscccccssccccccccsscccsccssscscscscccsssscssccscsccscccccssssssccccssssccsccccsscsscscsccccsscsscscccsccssscssscssscscssccsssccscc" />
</svg>
